# xmcd
#
# Track frame offsets: 
#        150
#        18025
#        36567
#        53507
#        69912
#        85302
#        104137
#        122167
#        140342
#        157112
#
# Disc length: 2389 seconds
#
# Revision: 4
# Processed by: cddbd v1.5.2PL0 Copyright (c) Steve Scherf et al.
# Submitted via: ExactAudioCopy v0.99pb5
#
DISCID=8509530a
DTITLE=Keb' Mo' - Peace... Back By Popular Demand
DYEAR=2004
DGENRE=Blues
TTITLE0=For What It's Worth
TTITLE1=Wake Up Everybody
TTITLE2=People Got To Be Free
TTITLE3=Talk
TTITLE4=What's Happening Brother
TTITLE5=The Times They Are A-Changin'
TTITLE6=Get Together
TTITLE7=Someday We'll All Be Free
TTITLE8=(What's So Funny 'Bout) Peace, Love And Understanding
TTITLE9=Imagine
EXTD=YEAR: 2004
EXTT0=
EXTT1=
EXTT2=
EXTT3=
EXTT4=
EXTT5=
EXTT6=
EXTT7=
EXTT8=
EXTT9=
PLAYORDER=
